<?xml version="1.0" encoding="UTF-8"?>
<!-- Generator: Adobe Illustrator 15.0.2, SVG Export Plug-In . SVG Version: 6.00 Build 0)  -->
<!DOCTYPE svg PUBLIC "-//W3C//DTD SVG 1.1//EN" "http://www.w3.org/Graphics/SVG/1.1/DTD/svg11.dtd">
<svg xmlns="http://www.w3.org/2000/svg" xmlns:xlink="http://www.w3.org/1999/xlink" version="1.1" id="Layer_1" x="0px" y="0px" width="512px" height="469.333px" viewBox="0 0 512 469.333" enable-background="new 0 0 512 469.333" xml:space="preserve">
<g>
	<path d="M490.667,42.667h-64C426.667,19.114,407.542,0,384,0h-42.667c-23.541,0-42.666,19.114-42.666,42.667H21.333   C9.562,42.667,0,52.229,0,64s9.562,21.333,21.333,21.333h277.334c0,23.553,19.125,42.667,42.666,42.667H384   c23.542,0,42.667-19.114,42.667-42.667h64C502.438,85.333,512,75.771,512,64S502.438,42.667,490.667,42.667z M384,85.333h-42.667   V42.667H384V85.333z M490.667,213.333H213.333c0-23.552-19.114-42.666-42.666-42.666H128c-23.552,0-42.667,19.114-42.667,42.666   h-64C9.562,213.333,0,222.896,0,234.667C0,246.438,9.562,256,21.333,256h64c0,23.542,19.115,42.667,42.667,42.667h42.667   c23.552,0,42.666-19.125,42.666-42.667h277.334c11.771,0,21.333-9.562,21.333-21.333C512,222.896,502.438,213.333,490.667,213.333z    M170.667,256H128v-42.667h42.667V256z M490.667,384H341.333c0-23.542-19.125-42.667-42.666-42.667H256   c-23.552,0-42.667,19.125-42.667,42.667h-192C9.562,384,0,393.562,0,405.333c0,11.771,9.562,21.334,21.333,21.334h192   c0,23.541,19.115,42.666,42.667,42.666h42.667c23.541,0,42.666-19.125,42.666-42.666h149.334c11.771,0,21.333-9.562,21.333-21.334   C512,393.562,502.438,384,490.667,384z M298.667,426.667H256V384h42.667V426.667z" fill="#FFFFFF"/>
</g>
</svg>
