<?xml version="1.0" encoding="UTF-8"?>
<!-- Generator: Adobe Illustrator 15.0.2, SVG Export Plug-In . SVG Version: 6.00 Build 0)  -->
<!DOCTYPE svg PUBLIC "-//W3C//DTD SVG 1.1//EN" "http://www.w3.org/Graphics/SVG/1.1/DTD/svg11.dtd">
<svg xmlns="http://www.w3.org/2000/svg" xmlns:xlink="http://www.w3.org/1999/xlink" version="1.1" id="Layer_1" x="0px" y="0px" width="512px" height="437.862px" viewBox="0 0 512 437.862" enable-background="new 0 0 512 437.862" xml:space="preserve">
<g>
	<path d="M512,41.6c0-22.45-17.8-40.697-40.05-41.522V0H43.828v0.116C43.084,0.078,42.35,0,41.6,0C18.625,0,0,18.625,0,41.6   c0,13.087,6.053,24.75,15.506,32.378l192.897,192.891L208.396,385.9v0.987h0.098c0.344,7.706,4.652,14.306,10.962,17.919l-0.06,0.1   l50.379,29.088c0.425,0.3,0.894,0.512,1.337,0.774l0.175,0.101v-0.007c3.213,1.856,6.9,3,10.882,3   c12.081,0,21.868-9.781,21.862-21.862c0-0.575-0.131-1.119-0.169-1.682h0.169V267.044L498.7,72.385l-0.188-0.191   C506.787,64.588,512,53.716,512,41.6z M142.394,83.2h0.091l0.006,0.097L142.394,83.2z" fill="#FFFFFF"/>
</g>
</svg>
